<?xml version="1.0" encoding="UTF-8"?><svg id="Layer_2" xmlns="http://www.w3.org/2000/svg" viewBox="0 0 226.05 106.95"><defs><style>.cls-1{fill:#e4d8ca;}</style></defs><g id="Layer_1-2"><g><g><polygon class="cls-1" points="98.04 36.36 98.04 44.55 88.21 44.55 88.21 54.37 80.02 54.37 80.02 44.55 70.2 44.55 70.2 36.36 80.02 36.36 80.02 26.53 88.21 26.53 88.21 36.36 98.04 36.36"/><polygon class="cls-1" points="155.85 36.36 155.85 44.55 146.02 44.55 146.02 54.37 137.83 54.37 137.83 44.55 128.01 44.55 128.01 36.36 137.83 36.36 137.83 26.53 146.02 26.53 146.02 36.36 155.85 36.36"/><path class="cls-1" d="M144.76,66.68c-8.17,8.47-19.65,13.73-32.35,13.73s-23.77-5.09-31.92-13.3l4.94-4.94c6.88,6.96,16.43,11.26,26.98,11.26s20.5-4.49,27.41-11.69l4.94,4.94Z"/></g><path class="cls-1" d="M172.58,0H53.47C23.98,0,0,23.98,0,53.47s23.98,53.48,53.47,53.48h119.11c29.48,0,53.47-23.99,53.47-53.48S202.06,0,172.58,0Zm0,98.95H53.47c-25.07,0-45.47-20.4-45.47-45.48S28.4,8,53.47,8h119.11c25.07,0,45.47,20.4,45.47,45.47s-20.4,45.48-45.47,45.48Z"/></g></g></svg>